<svg xmlns="http://www.w3.org/2000/svg" id="magic" viewBox="0 0 717.1875 1086" width="512" height="512"><path d="M304.188 348l-29 93-28-93-93-29 93-28 28-94 29 94 93 28zm162-51l-14 47-16-47-46-15 46-14 16-46 14 46 46 14zm-457 511l573-556c4-5 10-8 17-8 9-1 18 2 25 9 3 2 7 6 13 11 11 10 23 22 32 34 4 6 6 11 6 16 1 10-2 19-8 25l-573 558c-5 5-11 7-18 8-9 1-18-2-25-9-3-3-7-6-13-12-11-9-23-21-31-34-4-6-6-12-7-17-1-10 2-18 9-25zm460-404l42 43 133-129-42-44zm-279 57l-13 46-14-46-46-15 46-14 14-47 13 47 48 14zm466-35l15 47 46 14-46 15-15 46-15-46-46-15 46-14z"/></svg>