<svg xmlns="http://www.w3.org/2000/svg" id="ball-point-pen" viewBox="0 0 26 26" width="512" height="512"><path d="M17 0s-.78.04-1.78.47c-1.003.428-2.36 1.233-3.94 2.81C8.125 6.44 7.064 9.69 7.064 9.69a1 1 0 1 0 1.875.624s.938-2.75 3.78-5.593c1.422-1.423 2.565-2.118 3.313-2.44.485-.206.497-.168.626-.186l1.157 1.156c-1.56 1.207-3.66 2.94-5.782 5.063-4.242 4.242-8.186 9.593-8.186 9.593l4.25 4.25s5.351-3.945 9.594-8.187c4.242-4.243 6.968-8.376 6.968-8.376l-4.25-4.25s-.376.287-.937.687L17.72.28A1 1 0 0 0 17 0zm6.656 0c-.637.07-1.387.386-2.343.844l3.843 3.844c.915-1.914 1.245-2.975.188-4.032-.53-.528-1.05-.726-1.688-.656zm-20.5 18.594c-1.325 2.21-1.715 4.043-1.812 5.093L.5 24.5a.707.707 0 0 0 1 1l.844-.844c1.054-.1 2.87-.498 5.062-1.812l-4.25-4.25z"/></svg>