<svg x="0" y="0" version="1.1" xmlns="http://www.w3.org/2000/svg" xmlns:xlink="http://www.w3.org/1999/xlink" viewBox="0 0 26 26" width="512" height="512"><g fill="none" stroke="none" stroke-width="1" stroke-linecap="butt" stroke-linejoin="miter" stroke-miterlimit="10" stroke-dasharray="" stroke-dashoffset="0" font-family="sans-serif" font-weight="normal" font-size="12" text-anchor="start" mix-blend-mode="normal"><g><g><path d="M0,26l0,-26l26,0l0,26z" fill="none"/><g id="ball-point-pen" fill="#000000"><path d="M17,0c0,0 -0.78,0.04 -1.78,0.47c-1.003,0.428 -2.36,1.233 -3.94,2.81c-3.155,3.16 -4.216,6.41 -4.216,6.41c-0.18072,0.35054 -0.13852,0.77456 0.10772,1.08262c0.24625,0.30806 0.65056,0.44261 1.0323,0.34355c0.38174,-0.09906 0.6696,-0.41324 0.73498,-0.80216c0,0 0.938,-2.75 3.78,-5.593c1.422,-1.423 2.565,-2.118 3.313,-2.44c0.485,-0.206 0.497,-0.168 0.626,-0.186l1.157,1.156c-1.56,1.207 -3.66,2.94 -5.782,5.063c-4.242,4.242 -8.186,9.593 -8.186,9.593l4.25,4.25c0,0 5.351,-3.945 9.594,-8.187c4.242,-4.243 6.968,-8.376 6.968,-8.376l-4.25,-4.25c0,0 -0.376,0.287 -0.937,0.687l-1.752,-1.751c-0.1928,-0.18601 -0.45218,-0.28688 -0.72,-0.28z M23.656,0c-0.637,0.07 -1.387,0.386 -2.343,0.844l3.843,3.844c0.915,-1.914 1.245,-2.975 0.188,-4.032c-0.53,-0.528 -1.05,-0.726 -1.688,-0.656z M3.156,18.594c-1.325,2.21 -1.715,4.043 -1.812,5.093l-0.844,0.813c-0.27614,0.27614 -0.27614,0.72386 0,1c0.27614,0.27614 0.72386,0.27614 1,0l0.844,-0.844c1.054,-0.1 2.87,-0.498 5.062,-1.812l-4.25,-4.25z"/></g><g fill="#000000"><path d="M21.33931,21.84334l-1.73383,0l0,3.86657l-2.17583,0l0,-10.56269l3.92451,0c1.2475,0 2.20975,0.27808 2.88674,0.83423c0.67749,0.55615 1.01623,1.3421 1.01623,2.35783c0,0.72057 -0.156,1.32154 -0.468,1.80291c-0.312,0.48137 -0.7847,0.86469 -1.41811,1.14994l2.28503,4.316l0,0.10177l-2.33629,0l-1.98046,-3.86657 M19.60549,20.08054l1.75611,0c0.54625,0 0.96918,-0.13916 1.2688,-0.41749c0.30011,-0.27783 0.45017,-0.6609 0.45017,-1.1492c0,-0.49821 -0.14139,-0.89019 -0.42417,-1.17594c-0.28328,-0.28526 -0.71735,-0.42789 -1.30223,-0.42789l-1.74869,0z"/></g></g></g></g></svg>