<svg xmlns="http://www.w3.org/2000/svg" id="lasso" viewBox="0 0 1024 1234" width="512" height="512"><path d="M638 757q-5 29-25.5 50.5T563 834l-119 178q-7 12-20 15.5t-24-3-14.5-20T388 979l106-157q-31-19-41-53-93-10-178-51t-144.5-98-95-127T0 356q0-95 68.5-176T255 51.5 512 4t257 47.5T955.5 180t68.5 176q0 82-49.5 164.5T835.5 667 638 757zM512 68q-122 0-225 38.5t-163 105T64 356q0 55 30.5 113t82 106.5 125 84T455 705q11-27 35-44t54-17q26 0 48.5 13.5T627 694q141-35 237-135t96-203q0-78-60-144.5t-163-105T512 68z"/></svg>