<svg x="0" y="0" version="1.1" xmlns="http://www.w3.org/2000/svg" xmlns:xlink="http://www.w3.org/1999/xlink" viewBox="0 0 8 8" width="512" height="512"><g transform="translate(0.56,0.56) scale(0.86,0.86)"><g fill="none" stroke="none" stroke-width="1" stroke-linecap="butt" stroke-linejoin="miter" stroke-miterlimit="10" stroke-dasharray="" stroke-dashoffset="0" font-family="sans-serif" font-weight="normal" font-size="12" text-anchor="start" mix-blend-mode="normal"><g><g><g><path d="M0,8l0,-8l8,0l0,8z" fill="none" stroke="none"/><g id="text" fill="#000000" stroke="none"><path d="M0,0l0,2l0.5,0c0,-0.55 0.45,-1 1,-1l1.5,0l0,5.5c0,0.28 -0.22,0.5 -0.5,0.5l-0.5,0l0,1l4,0l0,-1l-0.5,0c-0.28,0 -0.5,-0.22 -0.5,-0.5l0,-5.5l1.5,0c0.55,0 1,0.45 1,1l0.5,0l0,-2z"/></g><path d="M-0.65116,0l9.30233,0" fill="none" stroke="#f713fe" opacity="0"/><path d="M-0.65116,8l9.30233,0" fill="none" stroke="#f713fe" opacity="0"/><path d="M0,-0.65116l0,9.30233" fill="none" stroke="#f713fe" opacity="0"/><path d="M8,-0.65116l0,9.30233" fill="none" stroke="#f713fe" opacity="0"/></g></g></g></g></g></svg>