<svg x="0" y="0" version="1.1" xmlns="http://www.w3.org/2000/svg" xmlns:xlink="http://www.w3.org/1999/xlink" viewBox="0 0 8 8" width="512" height="512"><g transform="translate(0.56,0.56) scale(0.86,0.86)"><g fill="none" stroke="none" stroke-width="1" stroke-linecap="butt" stroke-linejoin="miter" stroke-miterlimit="10" stroke-dasharray="" stroke-dashoffset="0" font-family="sans-serif" font-weight="normal" font-size="12" text-anchor="start" mix-blend-mode="normal"><g><g><g><path d="M0,8l0,-8l8,0l0,8z" fill="none" stroke="none"/><g id="text" fill="#000000" stroke="none"><path d="M0,0l0,2l0.5,0c0,-0.55 0.45,-1 1,-1l1.5,0l0,5.5c0,0.28 -0.22,0.5 -0.5,0.5l-0.5,0l0,1l4,0l0,-1l-0.5,0c-0.28,0 -0.5,-0.22 -0.5,-0.5l0,-5.5l1.5,0c0.55,0 1,0.45 1,1l0.5,0l0,-2z"/></g><g fill="#000000" stroke="none"><path d="M7.24825,7.36895l-0.53349,0l0,1.18971l-0.66949,0l0,-3.25006l1.20754,0c0.38385,0 0.67992,0.08556 0.88823,0.25669c0.20846,0.17112 0.31269,0.41295 0.31269,0.72549c0,0.22171 -0.048,0.40663 -0.144,0.55474c-0.096,0.14811 -0.24145,0.26606 -0.43634,0.35383l0.70309,1.328l0,0.03131l-0.71886,0l-0.60937,-1.18971 M6.71476,6.82655l0.54034,0c0.16808,0 0.29821,-0.04282 0.3904,-0.12846c0.09234,-0.08549 0.13851,-0.20335 0.13851,-0.3536c0,-0.1533 -0.0435,-0.2739 -0.13051,-0.36183c-0.08716,-0.08777 -0.22072,-0.13166 -0.40069,-0.13166l-0.53806,0z"/></g><path d="M-0.65116,0l9.30233,0" fill="none" stroke="#f713fe" opacity="0"/><path d="M-0.65116,8l9.30233,0" fill="none" stroke="#f713fe" opacity="0"/><path d="M0,-0.65116l0,9.30233" fill="none" stroke="#f713fe" opacity="0"/><path d="M8,-0.65116l0,9.30233" fill="none" stroke="#f713fe" opacity="0"/></g></g></g></g></g></svg>